<?xml version="1.0" encoding="utf-8"?>
<!-- Generator: Adobe Illustrator 18.0.0, SVG Export Plug-In . SVG Version: 6.00 Build 0)  -->
<!DOCTYPE svg PUBLIC "-//W3C//DTD SVG 1.1//EN" "http://www.w3.org/Graphics/SVG/1.1/DTD/svg11.dtd" [
	<!ENTITY ns_flows "http://ns.adobe.com/Flows/1.0/">
	<!ENTITY ns_extend "http://ns.adobe.com/Extensibility/1.0/">
	<!ENTITY ns_ai "http://ns.adobe.com/AdobeIllustrator/10.0/">
	<!ENTITY ns_graphs "http://ns.adobe.com/Graphs/1.0/">
]>
<svg version="1.1" id="Layer_1" xmlns:x="&ns_extend;" xmlns:i="&ns_ai;" xmlns:graph="&ns_graphs;"
	 xmlns="http://www.w3.org/2000/svg" xmlns:xlink="http://www.w3.org/1999/xlink" xmlns:a="http://ns.adobe.com/AdobeSVGViewerExtensions/3.0/"
	 x="0px" y="0px" viewBox="0 0 2800 2800" enable-background="new 0 0 2800 2800" xml:space="preserve">
<g>
	<g>
		<rect fill="#6EC171" width="2800" height="2800"/>
		<g>
			<rect x="1526.9" fill="#F1429E" width="1273.1" height="908.3"/>
			<rect x="1374.9" y="2309.2" fill="#F6F053" width="1425.1" height="490.8"/>
			<rect y="1903.7" fill="#F1429E" width="821.2" height="896.3"/>
			<rect x="806.7" y="305" fill="#53BED1" width="720.2" height="2488"/>
			<rect fill="#F6F053" width="806.7" height="1350"/>
		</g>
	</g>
	<g>
		<g>
			<g>
				<path fill="#231F20" d="M795.4,2259.9c-10.7,9.5-17.5,15.4-17.5,15.4S784.9,2269.3,795.4,2259.9z"/>
				<path fill="#231F20" d="M2004.6,2260.5c10.5,9.3,17.5,15.4,17.5,15.4S2015.3,2270,2004.6,2260.5z"/>
				<path fill="#231F20" d="M2087.3,2130.5c-79.8-83.8-78.2-105.9-78.2-105.9l49,39.5l-42.7-49.8l58.5,40.3l-44.3-41.1l41.9,29.2
					l-38.1-35.7l62.6,31.7l-38.7-26.9c0,0,109.9,46.6,213.4,98.8c103.5,52.2,267.9,196,267.9,196s-78.2-72.7-176.2-145.4
					c-98-72.7-233.1-129.6-233.1-129.6l32.4,11.1l-89.3-45.8c0,0,112.2,49.8,190.5,79.8c78.2,30,191.3,45,191.3,45
					s-118.5-25.3-193.6-62.4c-75.1-37.1-201.5-86.9-201.5-86.9l37.9,12.6l-51.4-29.2c0,0,26.1,5.5,124.9,45
					c98.8,39.5,155.7,79,155.7,79s-37.1-35.6-117.8-72.8c-80.6-37.2-148.6-63.1-148.6-63.1l34,7.1l-41.1-22.9
					c0,0,30.8,9.5,80.6,22.1c49.8,12.6,71.1,10.3,71.1,10.3s-34.8-12.6-75.1-27.7c-40.3-15-48.2-21.3-48.2-21.3l27.7,1.6l-42.7-14.2
					c0,0,37.9,4,101.9,6.3c64,2.4,73.5-3.2,73.5-3.2s-60.9-4.7-108.3-17.4c-47.4-12.6-54.5-16.6-54.5-16.6l60.9-3.2l-49.8-11.9h67.2
					l-63.2-15h37.1l-33.2-12.1h27.7c0,0,24.5,7.3,86.1,31.8s189.7,116.2,189.7,116.2s-41.1-50.6-79-82.2
					c-37.9-31.6-169.9-87.7-169.9-87.7l26.1,1.6l-32.4-15l38.7,2.4l-30.8-23.7l39.5,9.5l-27.7-23.7l22.9,4.7l-25.3-15
					c0,0,43.5,4.7,133.6,25.3c90.1,20.5,192.8,67.2,192.8,67.2s-33.2-25.3-95.6-53.7c-62.4-28.5-200.7-55.3-200.7-55.3
					s8.7-19,12.6-42.7c4-23.8,3.2-50.5,3.2-50.5l14.2,46.5c0,0,1.6-28.3-5.5-75c-7.1-46.6-24.5-82.2-24.5-82.2l21.3,27.7l-11.1-63.3
					l12.6,27.3c0,0-3.2-20.9-7.9-43.1c-4.7-22.1-22.5-53.7-22.5-53.7l23.3,13.8l-23.3-45.5l19.4,10.3l-29.2-38.7l25.6,9.5l-35-38.7
					l26.9,8.7l-53.7-38.5c0,0,48.2,15.5,46.2,13.9c-2-1.6-30.4-39.5-30.4-39.5l15-23.7l-21.3,9.1l22.1-36l-26.1,11.1l21.3-19.8h-9.5
					l0.8-43.5l-15.8,29.2c0,0,2.4-36.6,5.3-53.1c3-16.6,9.5-93.1,9.5-93.1l9.5,67c0,0,4.1-23.1,4.1-48c0-24.9-3.6-83-3.6-83
					l8.9,26.1c0,0-4.7-58.7,1.2-81.2s33.2-70.5,33.2-70.5l-32.6,19c0,0,41.5-68.8,42.7-71.7c1.2-3-28.5,21.5-28.5,21.5
					s10.1-20.9,24.3-63c14.2-42.1,11.9-111.4,8.9-183.2s-23.4-139.3-23.4-139.3l9.8,12.4c0,0-17.2-43.9-55.1-61.6
					s-58.7-11.9-106.1,20.2c-47.4,32-94.8,88.3-142.3,152.9c-47.4,64.6-159.4,204.5-159.4,204.5l10.7-23.1c0,0-32,30.8-73.5,52.2
					c-41.5,21.3-63.2,16.6-63.2,16.6l32.8-24.9l-54.5,22.4l14.2-14.8c0,0-57.7,26.9-112.2,28.8c-51.5,1.8-97.3,0.2-102.2,0v-0.6
					c0,0-48.1,2-102.7,0c-54.5-2-112.2-28.8-112.2-28.8l14.2,14.8l-54.5-22.4l32.8,24.9c0,0-21.7,4.7-63.2-16.6
					c-41.5-21.3-73.5-52.2-73.5-52.2l10.7,23.1c0,0-112-139.9-159.4-204.5c-47.4-64.6-94.8-120.9-142.3-152.9S681.9,381,644,398.8
					c-37.9,17.8-55.1,61.6-55.1,61.6l9.8-12.4c0,0-20.5,67.6-23.4,139.3s-5.3,141.1,8.9,183.2c14.2,42.1,24.3,63,24.3,63
					S578.8,809,580,811.9s42.7,71.7,42.7,71.7l-32.6-19c0,0,27.3,48,33.2,70.5c5.9,22.5,1.2,81.2,1.2,81.2l8.9-26.1
					c0,0-3.6,58.1-3.6,83s4.1,48,4.1,48l9.5-67c0,0,6.5,76.5,9.5,93.1c3,16.6,5.3,53.1,5.3,53.1l-15.8-29.2l0.8,43.5h-9.5l21.3,19.8
					l-26.1-11.1l22.1,36l-21.3-9.1l15,23.7c0,0-28.5,37.9-30.4,39.5c-2,1.6,46.2-13.9,46.2-13.9l-53.7,38.5l26.9-8.7l-35,38.7
					l25.6-9.5l-29.2,38.7l19.4-10.3l-23.3,45.5l23.3-13.8c0,0-17.8,31.6-22.5,53.7c-4.7,22.1-7.9,43.1-7.9,43.1l12.6-27.3
					l-11.1,63.3l21.3-27.7c0,0-17.4,35.6-24.5,82.2c-7.1,46.6-5.5,75-5.5,75l14.2-46.5c0,0-0.8,26.8,3.2,50.5
					c4,23.8,12.6,42.7,12.6,42.7s-138.3,26.9-200.7,55.3c-62.4,28.5-95.6,53.7-95.6,53.7s102.7-46.6,192.8-67.2
					c90.1-20.5,133.6-25.3,133.6-25.3l-25.3,15l22.9-4.7l-27.7,23.7l39.5-9.5l-30.8,23.7l38.7-2.4l-32.4,15l26.1-1.6
					c0,0-132,56.1-169.9,87.7c-37.9,31.6-79,82.2-79,82.2s128-91.7,189.7-116.2c61.6-24.5,86.1-31.8,86.1-31.8h27.7l-33.2,12.1h37.1
					l-63.2,15h67.2l-49.8,11.9l60.9,3.2c0,0-7.1,4-54.5,16.6c-47.4,12.6-108.3,17.4-108.3,17.4s9.5,5.5,73.5,3.2
					c64-2.4,101.9-6.3,101.9-6.3l-42.7,14.2l27.7-1.6c0,0-7.9,6.3-48.2,21.3c-40.3,15-75.1,27.7-75.1,27.7s21.3,2.4,71.1-10.3
					c49.8-12.6,80.6-22.1,80.6-22.1l-41.1,22.9l34-7.1c0,0-68,25.9-148.6,63.1c-80.6,37.2-117.8,72.8-117.8,72.8s56.9-39.5,155.7-79
					c98.8-39.5,124.9-45,124.9-45l-51.4,29.2l37.9-12.6c0,0-126.4,49.8-201.5,86.9c-75.1,37.1-193.6,62.4-193.6,62.4
					s113-15,191.3-45c78.2-30,190.5-79.8,190.5-79.8l-89.3,45.8l32.4-11.1c0,0-135.1,56.9-233.1,129.6s-176.2,145.4-176.2,145.4
					s164.4-143.8,267.9-196c103.5-52.2,213.4-98.8,213.4-98.8l-38.7,26.9l62.6-31.7l-38.1,35.7l41.9-29.2l-44.3,41.1l58.5-40.3
					l-42.7,49.8l49-39.5c0,0,1.6,22.1-78.2,105.9c-79.8,83.8-169.9,147-223.7,192.8c-53.7,45.8-126.4,87.7-126.4,87.7
					s189.7-101.9,284.5-175.4s191.3-171.5,191.3-171.5l-43.5,58.5l56.9-45c0,0-39.5,46.6-37.1,46.6c2.4,0,51.4-37.1,51.4-37.1
					l34-20.9l-33.2,39.1l88.9-62.4l-30.4,32.8l39.9-23.1L919,2107l34.4-13c0,0-62.8,77.1-96,109.1c-20.3,19.6-45.5,42.2-62,56.9
					c32.3-28.5,100.9-88.9,130-113.8c38.7-33.2,57.7-52.2,57.7-52.2l-23.7,48.6l26.1-26.1l-72.3,116.2l60.5-73.1l-19.4,28.1
					l77.4-72.7l-16.2,22.1l22.9-14.2l-26.1,28.8l39.1-30.8l-17.8,37.1l26.5-18.2l-13,21.7l27.3-18.2l-15.4,37.1l24.6-34l-53,103.5
					c0,0,64.8-94,65.6-96c0.8-2-12.6,32-12.6,32l5.9-7.5l-20.9,53.3l48.2-67.2l-4.7,31.2l20.5-35.2l-13.8,63.2l36-70.3l-11.5,38.7
					l14.2-28.1v30l17-40.3l5.5,38.7l7.1-32.6c0,0.7,0.8,3.9,14.7,16c16.2,14.2,27.3,20.9,27.3,20.9l-17.4-28.5
					c0,0,10.3,11.1,31.6,20.9c21.3,9.9,30,12.6,30,12.6l-18.6-22.9l26.1,10.7l-18.2-18.6c0,0,11.9-0.8,32.4,10.7
					c20.5,11.5,39.9,26.9,39.9,26.9s0.8-6.7-8.3-16.2c-9.1-9.5-16.6-14.2-16.6-14.2s10.7-2,29.6,11.5c19,13.4,28.5,22.9,28.5,22.9
					l-6.3-17c0,0,3.2-0.8,16.6,11.9c11.7,11,19.7,21.9,21.6,24.6v1.2c0,0,0.2-0.2,0.4-0.6c0,0,0,0,0,0v-0.1
					c1.9-2.7,9.9-13.7,21.6-24.6c13.4-12.6,16.6-11.9,16.6-11.9l-6.3,17c0,0,9.5-9.5,28.5-22.9c19-13.4,29.6-11.5,29.6-11.5
					s-7.5,4.7-16.6,14.2c-9.1,9.5-8.3,16.2-8.3,16.2s19.4-15.4,39.9-26.9c20.5-11.5,32.4-10.7,32.4-10.7l-18.2,18.6l26.1-10.7
					l-18.6,22.9c0,0,8.7-2.8,30-12.6c21.3-9.9,31.6-20.9,31.6-20.9l-17.4,28.5c0,0,11.1-6.7,27.3-20.9c13.8-12.1,14.7-15.3,14.7-16
					l7.1,32.6l5.5-38.7l17,40.3v-30l14.2,28.1l-11.5-38.7l36,70.3l-13.8-63.2l20.5,35.2l-4.7-31.2l48.2,67.2l-20.9-53.3l5.9,7.5
					c0,0-13.4-34-12.6-32c0.8,2,65.6,96,65.6,96l-53-103.5l24.6,34l-15.4-37.1l27.3,18.2l-13-21.7l26.5,18.2l-17.8-37.1l39.1,30.8
					l-26.1-28.8l22.9,14.2l-16.2-22.1l77.4,72.7l-19.4-28.1l60.5,73.1l-72.3-116.2l26.1,26.1l-23.7-48.6c0,0,19,19,57.7,52.2
					c29.1,24.9,97.6,85.3,130,113.8c-16.5-14.7-41.7-37.3-62-56.9c-33.2-32-96-109.1-96-109.1l34.4,13l-46.2-55.1l39.9,23.1
					l-30.4-32.8l88.9,62.4l-33.2-39.1l34,20.9c0,0,49,37.1,51.4,37.1c2.4,0-37.1-46.6-37.1-46.6l56.9,45l-43.5-58.5
					c0,0,96.4,98,191.3,171.5c94.8,73.5,284.5,175.4,284.5,175.4s-72.7-41.9-126.4-87.7C2257.2,2277.5,2167.1,2214.3,2087.3,2130.5z
					"/>
			</g>
			<path d="M880.5,1388.7c0,0,30.6-14.9,62.8-39.6c32.1-24.7,47.1-38.9,87.4-41.1c40.4-2.2,56,3.7,56,3.7c-4.1,0.9-8.3,1.7-12.4,2.7
				c13.8,4.4,28.1,6,41.6,12.8c13.4,6.7,25.7,15.9,35.9,27c30.6,33.4,35.5,80.1,36.5,123.5c0.7,32.1-12,101.6-12,101.6l-1.5-38.1
				c0,0-9.7,17.9-20.9,26.9c-11.2,9-23.2,14.2-23.2,14.2s9.7-22.4,4.5-41.8c0,0-75.5,29.1-134.5,4.5c-59-24.7-91.9-74.7-86.7-149.5
				C914.1,1395.4,897.6,1399.2,880.5,1388.7z"/>
			<circle fill="#FCF118" cx="1057.5" cy="1433.2" r="112.5"/>
			<path d="M1063.5,1363.3c-45.6,64.3,0,113.6,0,113.6S1109.1,1427.6,1063.5,1363.3z"/>
			<path fill="#F3941F" d="M964,1404.6c0,0-14.3,47.2,15.1,88.6c29.5,41.4,90.8,42.6,90.8,42.6l-31.4-10.6c0,0,21.8,7.8,19-6.7
				s-15.1-5.6-35.3-36.4c-20.2-30.8-10.6-90.8-9.5-100.9c1.1-10.1-15.7,3.4-20.7,14c-5,10.6-6.7-7.3-15.1-8.4S964,1404.6,964,1404.6
				z"/>
			<path d="M1474.8,1872.9c9.5-12.6,14.2-25.3,39.6-40.3c25.4-15,53.6-48.2,53.6-76.7s-29.5-47.4-29.5-47.4s1.1,3.2,6.6,13.3
				c5.5,10.1,7.9,25.4,7.9,25.4s-4-11.1-30.8-25.4c-25.8-13.8-115.2-17-122-17.2v-0.6c0,0-95.5,2.9-122.4,17.2
				c-26.9,14.4-30.8,25.4-30.8,25.4s2.4-15.3,7.9-25.4c5.5-10.1,6.6-13.3,6.6-13.3s-29.5,19-29.5,47.4c0,28.5,28.2,61.6,53.6,76.7
				c25.4,15,30.1,27.7,39.6,40.3c9.5,12.6,37.1,14.2,50.6,34c13.4,19.8,18.2,53.7,11.1,67.2c-7.1,13.4-30.6,30.8-56,45
				c-25.4,14.2-49.9,23.7-49.9,23.7s54.8-17.4,74-28.5c17.8-10.2,41.4-13.7,44.8-14.2v0.5c0,0,26,3.2,45.2,14.2s74,28.5,74,28.5
				s-24.5-9.5-49.9-23.7c-25.4-14.2-48.9-31.6-56-45s-2.4-47.4,11.1-67.2C1437.6,1887.1,1465.3,1885.5,1474.8,1872.9z"/>
			<path d="M1919.5,1389.3c0,0-30.6-14.9-62.8-39.6c-32.1-24.7-47.1-38.9-87.4-41.1c-40.4-2.2-56,3.7-56,3.7
				c4.1,0.9,8.3,1.7,12.4,2.7c-13.8,4.4-28.1,6-41.6,12.8c-13.4,6.7-25.7,15.9-35.9,27c-30.6,33.4-35.5,80.1-36.5,123.5
				c-0.7,32.1,12,101.6,12,101.6l1.5-38.1c0,0,9.7,17.9,20.9,26.9c11.2,9,23.2,14.2,23.2,14.2s-9.7-22.4-4.5-41.8
				c0,0,75.5,29.1,134.5,4.5s91.9-74.7,86.7-149.5C1885.9,1396,1902.4,1399.8,1919.5,1389.3z"/>
			<circle fill="#FCF118" cx="1742.5" cy="1433.8" r="112.5"/>
			<path d="M1736.5,1363.9c45.6,64.3,0,113.6,0,113.6S1690.9,1428.2,1736.5,1363.9z"/>
			<path fill="#EC4136" d="M1538,1762.3c-4.7-15.8-36.9-42.6-137.8-40.3v-0.6c-101.2-2.4-133.5,24.5-138.2,40.3
				c-4.7,15.8,23.7,42.7,39.5,44.7c15.8,2-3.2-14.6,0-20.9c3.2-6.3,39.5-1.6,53.5,26.1c14,27.7-9.2,33.2,0,53
				c8.6,18.5,40.6,25.9,44.8,26.8v0.7c0,0,36-7.1,45.2-26.9c9.2-19.8-14-25.3,0-53c14-27.7,50.3-32.4,53.5-26.1
				c3.2,6.3-15.8,22.9,0,20.9C1514.3,1804.9,1542.7,1778.1,1538,1762.3z"/>
			<path fill="#EC4136" d="M1427.6,2022.1c-2.1-2.6-1.6-6.3-5.8-6.8c-3.9-0.5-19.1-0.1-21.6,0v-0.5c0,0-17.8-0.5-22,0
				c-4.2,0.5-3.7,4.2-5.8,6.8c-2.1,2.6-21,3.2-21,3.2s8.2,23,48.4,23.6v0.5c40.6-0.5,48.8-23.7,48.8-23.7
				S1429.7,2024.7,1427.6,2022.1z"/>
			<path fill="#F3941F" d="M1836,1405.2c0,0,14.3,47.2-15.1,88.6c-29.5,41.4-90.8,42.6-90.8,42.6l31.4-10.6c0,0-21.8,7.8-19-6.7
				c2.7-14.6,15.1-5.6,35.3-36.4c20.2-30.8,10.6-90.8,9.5-100.9c-1.1-10.1,15.7,3.4,20.7,14s6.7-7.3,15.1-8.4
				S1836,1405.2,1836,1405.2z"/>
			<g>
				<path fill="#F3941F" d="M1372.7,1822.9c6.3-51.4-1.8-55.7-17.7-68.8c-15.9-13,4.2-25.3,4.2-25.3s-49,5.9-65.6,14.2
					c-16.6,8.3-22.9,17-19.8,25.3c3.2,8.3,8.9,15.8,11.7,11.1c2.9-4.7,2.5-11.9,12.4-11.9c9.9,0,38.7-0.8,54.1,20.9
					c15.4,21.7,14.6,29.2,13.8,41.9c-0.8,12.6-5.1,27.3,2.4,35.2c7.2,7.6,21.3,7.5,22.4,7.5
					C1389.1,1873.1,1366.7,1872.4,1372.7,1822.9z"/>
				<path fill="#F3941F" d="M1390.8,1873.1c0,0-0.1,0-0.1,0C1390.8,1873.1,1390.8,1873.1,1390.8,1873.1z"/>
				<path fill="#F3941F" d="M1409.3,1873.7c0,0-0.1,0-0.1,0S1409.2,1873.7,1409.3,1873.7z"/>
				<path fill="#F3941F" d="M1506.4,1743.7c-16.6-8.3-65.6-14.2-65.6-14.2s20.2,12.2,4.2,25.3c-15.9,13-24,17.4-17.7,68.8
					c6,49.5-16.4,50.2-18,50.2c1.1,0,15.2,0.1,22.4-7.5c7.5-7.9,3.2-22.5,2.4-35.2c-0.8-12.6-1.6-20.2,13.8-41.9
					c15.4-21.7,44.3-20.9,54.1-20.9c9.9,0,9.5,7.1,12.4,11.9s8.6-2.8,11.7-11.1C1529.3,1760.7,1523,1752,1506.4,1743.7z"/>
			</g>
			<g>
				<path fill="#BE1A2D" d="M1297.2,2048.9l-0.7,0.5C1297,2049.1,1297.2,2048.9,1297.2,2048.9z"/>
				<path fill="#F3EF8E" d="M2002.5,1887.7l28.5-20.2c0,0-111.4,32.6-189.1,19c-77.6-13.6-106.1-33.2-106.1-33.2l7.7,14.8l-18.4-3.6
					l5.9,9.1l-21.9-3.8c0,0,5.9,4.7,23.7,11.3c17.8,6.5,33.1,10.7,33.1,10.7l-15.3,4.1c0,0,26.1,14.8,10.1,24.9s-30.8,7.7-30.8,7.7
					l34.4,7.8l-39.1,5.2l29.6,5.3c0,0-22.5,6.5-23.1,8.9c-0.6,2.4,18.4,8.9,11.9,10.7c-6.5,1.8-24.3,2.4-24.3,2.4
					s15.4,7.1,20.2,13.6c4.7,6.5-20.2,27.9-71.7,50.8c-51.6,23-62.8,9.4-62.8,9.4l24.9-9.4l-15.5-3.4l31.4-7.7c0,0-26.1,1.2-36.7,0
					c-10.7-1.2-56.9-11.9-63.4-19c-6.5-7.1,11.3,0,31.4,0c20.2,0,46.8-8.3,46.8-8.3l-36.7-3.6l35.6-4.7c0,0-35.6,1.2-58.7-3.6
					c-23.1-4.7-35.6-23.1-25.4-39c10.2-15.8,21.8-1.3,52-0.2s88.3-4.7,88.3-4.7s-19,0.6-47.4,0c-28.4-0.6-49.3-8.3-49.3-8.3h27.3
					c0,0-56.9-7.1-65.2-24.9s14.8-26.1,40.3-25.5c25.5,0.6,46.9,0,46.9,0l-29.1-3.6c0,0,22.5,0,59.3-5.9
					c36.7-5.9,55.7-24.3,55.7-24.3l-26.1,10.1l33.2-19.6c0,0-100.8,27.9-131,23.1c-30.2-4.7-55-34.4-55-34.4
					c0.1,22.5,18.8,29,18.8,29s-23.7-7.7-38.5-5.9c-14.8,1.8-27.9,15.4-27.9,15.4l17.2-3.6l-21.3,16l27.6-7.7c0,0-25.8,18.4-55.4,29
					c-29.6,10.7-36.7,20.2-35.6,46.2s31.4,37.9,31.4,37.9l-27.5-5.9c0,0,22.8,23.1,67.2,42.7c44.5,19.6,82.4,29.6,82.4,29.6
					l-29.6,3.6l33.8,6.5c0,0-14.2,0-45-3c-23.9-2.3-30.7-5-32.5-6l23.4,17.3l-43-19l-32.6,20.7l23.7-26.3l-20.2,9.7l5.3-9.7
					c0,0-9.5,5.5-32.9,9.7c-19.4,3.4-25.5,6.5-27.1,7.4v-0.3c0,0-4.1-3.6-27.5-7.7c-23.4-4.1-32.9-9.7-32.9-9.7l5.3,9.7l-20.2-9.7
					l23.7,26.3l-32.6-20.7l-43,19l23.4-17.3c-1.8,1.1-8.6,3.7-32.5,6c-30.8,3-45,3-45,3l33.8-6.5l-29.6-3.6c0,0,37.9-10.1,82.4-29.6
					c44.5-19.6,67.2-42.7,67.2-42.7l-27.5,5.9c0,0,30.2-11.9,31.4-37.9s-5.9-35.6-35.6-46.2c-29.6-10.7-55.4-29-55.4-29l27.6,7.7
					l-21.3-16l17.2,3.6c0,0-13-13.6-27.9-15.4c-14.8-1.8-38.5,5.9-38.5,5.9s18.7-6.5,18.8-29c0,0-24.8,29.6-55,34.4
					s-131-23.1-131-23.1l33.2,19.6l-26.1-10.1c0,0,19,18.4,55.7,24.3c36.7,5.9,59.3,5.9,59.3,5.9l-29.1,3.6c0,0,21.4,0.6,46.9,0
					c25.5-0.6,48.6,7.7,40.3,25.5c-8.3,17.8-65.2,24.9-65.2,24.9h27.3c0,0-20.9,7.7-49.3,8.3c-28.4,0.6-47.4,0-47.4,0
					s58.1,5.9,88.3,4.7c30.2-1.2,41.8-15.7,52,0.2c10.2,15.8-2.2,34.2-25.4,39c-23.1,4.7-58.7,3.6-58.7,3.6l35.6,4.7l-36.7,3.6
					c0,0,26.7,8.3,46.8,8.3c20.2,0,37.9-7.1,31.4,0c-6.5,7.1-52.8,17.8-63.4,19c-10.7,1.2-36.7,0-36.7,0l31.4,7.7l-15.5,3.4
					l24.9,9.4c0,0-11.3,13.6-62.8-9.4c-51.6-23-76.5-44.3-71.7-50.8c4.7-6.5,20.2-13.6,20.2-13.6s-17.8-0.6-24.3-2.4
					c-6.5-1.8,12.4-8.3,11.9-10.7c-0.6-2.4-23.1-8.9-23.1-8.9l29.6-5.3l-39.1-5.2l34.4-7.8c0,0-14.8,2.4-30.8-7.7
					c-16-10.1,10.1-24.9,10.1-24.9l-15.3-4.1c0,0,15.3-4.1,33.1-10.7c17.8-6.5,23.7-11.3,23.7-11.3l-21.9,3.8l5.9-9.1l-18.4,3.6
					l7.7-14.8c0,0-28.5,19.6-106.1,33.2s-189.1-19-189.1-19l28.5,20.2l-30.8-14c0,0,11.3,17,54.5,30.6
					c43.3,13.6,118.5,10.7,118.5,10.7l-62.8,6.5c0,0,37.9,0.6,74.7-0.6c36.7-1.2,49.2-3.6,49.2-3.6l-127.4,23.7l49.2-4.6l-72.9,19.4
					l72.9-9.5l-40.3,17.8l80-19l-64.6,33.8l39.7-10.7l-30.2,19l32.6-7.7l-50.4,46.2l96.6-54.5l-51.6,37.9l30.2-14.8l-21.9,19.9
					l48-21.7l-58.1,50.2l66.4-35.4l-23.1,28.5l40-16l-42.9,48.6l48.6-30.8l-46.2,40.9l68.2-45.2l-36.2,54.1l29.6-20.7l-27.9,30.2
					l50.4-33.2l-64,69.9l69.3-60.5l-19,38.5l36.2-30.8l-22.5,49.2l48.6-58.7l-30.2,48.6l27.3-31.4l-26.1,45l31.4-33.2l-17.2,33.2
					l30.8-35l-17.8,37.9l28.5-31.4l-32.6,64l31.4-45l-9.5,31.4l16-21.3l-3.6,17.2l26.7-22.5l-6.5,15.4l22.5-17.8l-8.3,23.1
					l16.6-17.8c0,0,10.1,17.8,21.9,26.7c11.9,8.9,35,17.2,35,17.2l-20.2-23.7l14.2,9.5l-15.4-16.6c0,0,2.4,2.4,32.6,7.7
					c30.2,5.3,45.6,7.1,45.6,7.1l-15.7-9.5c0,0,16.9,0,39.4,10.1c22.5,10.1,39.1,23.7,39.1,23.7l-9.2-17.8c0,0,13.9,8.9,24.6,14.8
					c9.3,5.2,18.2,6.7,20.2,7v0.7c0,0,10-1.2,20.7-7.1c10.7-5.9,24.6-14.8,24.6-14.8l-9.2,17.8c0,0,16.6-13.6,39.1-23.7
					c22.5-10.1,39.4-10.1,39.4-10.1l-15.7,9.5c0,0,15.4-1.8,45.6-7.1c30.2-5.3,32.6-7.7,32.6-7.7l-15.4,16.6l14.2-9.5l-20.2,23.7
					c0,0,23.1-8.3,35-17.2s21.9-26.7,21.9-26.7l16.6,17.8l-8.3-23.1l22.5,17.8l-6.5-15.4l26.7,22.5l-3.6-17.2l16,21.3l-9.5-31.4
					l31.4,45l-32.6-64l28.5,31.4l-17.8-37.9l30.8,35l-17.2-33.2l31.4,33.2l-26.1-45l27.3,31.4l-30.2-48.6l48.6,58.7l-22.5-49.2
					l36.2,30.8l-19-38.5l69.3,60.5l-64-69.9l50.4,33.2l-27.9-30.2l29.6,20.7l-36.2-54.1l68.2,45.2l-46.2-40.9l48.6,30.8l-42.9-48.6
					l40,16l-23.1-28.5l66.4,35.4l-58.1-50.2l48,21.7l-21.9-19.9l30.2,14.8l-51.6-37.9l96.6,54.5l-50.4-46.2l32.6,7.7l-30.2-19
					l39.7,10.7l-64.6-33.8l80,19l-40.3-17.8l72.9,9.5l-72.9-19.4l49.2,4.6l-127.4-23.7c0,0,12.4,2.4,49.2,3.6s74.7,0.6,74.7,0.6
					l-62.8-6.5c0,0,75.3,3,118.5-10.7c43.3-13.6,54.5-30.6,54.5-30.6L2002.5,1887.7z"/>
				<path fill="#BE1A2D" d="M1503.5,2050l-0.7-0.5C1502.8,2049.5,1503,2049.7,1503.5,2050z"/>
			</g>
			<g>
				<path fill="#1CA4C9" d="M1234,1545.7l-2,2.6C1232,1548.3,1232.7,1547.4,1234,1545.7z"/>
				<path fill="#1CA4C9" d="M1566,1546.3c1.3,1.8,2,2.6,2,2.6L1566,1546.3z"/>
				<path fill="#F6B2A0" d="M1573.6,1590.8c-36.4-65.6-41.9-88.5-41.9-88.5l34.3,44c-6.8-9.5-28.4-46.4-27.5-130.9
					c1.1-100.4,147.3-166,147.3-166l-83,27.7l40.3-34.8c0,0-75.6,23.7-104.6,63.2c-29,39.5-37.7,68.7-37.7,68.7l5.5-60.1l-22.5,45.1
					c0,0-8.3-56.1,5.1-97.2c13.4-41.1,25.4-77.4,25.4-77.4l-24.6,34.8c0,0-4.7-3.2,11.9-43.5c16.6-40.3,39.5-69.5,39.5-69.5
					l-42.7,49l22.9-55.3l-33.2,38.7l9.5-74.3l-16.3,34.8v-79.8l-16.1,41.9l-7.9-131.2v73.5l-22.9-68v56.9l-18.2-99.6l4.7,70.3
					l-20.8-51.8v-1.7l-0.3,0.9l-0.1-0.3v0.5l-20.8,51.8l4.7-70.3l-18.2,99.6V935l-22.9,68v-73.5l-7.9,131.2l-16.1-41.9v79.8
					l-16.3-34.8l9.5,74.3l-33.2-38.7l22.9,55.3l-42.7-49c0,0,22.9,29.2,39.5,69.5c16.6,40.3,11.9,43.5,11.9,43.5l-24.6-34.8
					c0,0,12,36.4,25.4,77.4c13.4,41.1,5.1,97.2,5.1,97.2l-22.5-45.1l5.5,60.1c0,0-8.7-29.2-37.7-68.7
					c-29-39.5-104.6-63.2-104.6-63.2l40.3,34.8l-83-27.7c0,0,146.2,65.6,147.3,166c0.9,84.5-20.6,121.4-27.5,130.9l34.3-44
					c0,0-5.5,22.9-41.9,88.5C1190.1,1655.8,1100,1704,1100,1704s53.7-20.5,90.1-51.4c36.4-30.8,79.8-111.6,79.8-111.6l-8.4,56.3
					l17.1-27.7l-8.7,30.8l24.5-42.7c0,0-7.1,32.4-24.5,76.7c-17.4,44.3-24.5,54.5-24.5,54.5c46.6-45.2,74.3-124.3,74.3-124.3
					l-6.5,43.3l31.4-80.6c0,0-0.6,20.7-12.6,59.9c-12.1,39.1-41.3,94.5-41.3,94.5l31.4-28.7l-27.9,39.1l32.6-11.2l-28.5,17.1
					c0,0,30.8-7.7,51-16.3c20.2-8.6,34.4-17.5,34.4-17.5l-8.9,17.5l25-0.8v0.6l25.4,0.8l-8.9-17.5c0,0,14.2,8.8,34.4,17.5
					c20.2,8.6,51,16.3,51,16.3l-28.5-17.1l32.6,11.2l-27.9-39.1l31.4,28.7c0,0-29.2-55.4-41.3-94.5c-12.1-39.1-12.6-59.9-12.6-59.9
					l31.4,80.6l-6.5-43.3c0,0,27.7,79,74.3,124.3c0,0-7.1-10.3-24.5-54.5c-17.4-44.3-24.5-76.7-24.5-76.7l24.5,42.7l-8.7-30.8
					l17.1,27.7l-8.4-56.3c0,0,43.5,80.8,79.8,111.6c36.4,30.8,90.1,51.4,90.1,51.4S1609.9,1656.4,1573.6,1590.8z"/>
			</g>
			<g>
				<path fill="#41B6C6" d="M1160.8,1293c0,0,16.2,12.2,32,32.4c15.8,20.2,19.4,41.1,19.4,41.1l-17-21.7l10.7,39.5
					c0,0-5.9-17.8-26.5-49.4c-20.5-31.6-63.2-58.9-63.2-58.9l19.8,23.6c0,0-14.2-9.3-49.3-25.2c-35.1-15.8-72.6-26.5-72.6-26.5
					l40.1,8.7l-43.1-29.8l50.6,22.3l-27.2-25.3l65.6,38.7l-50.2-57.3l33.6,27.3l-18.2-46.2l30.8,47.8l-9.4-58.1l13.3,45l-5.5-94
					l35.6,73.5l-2.4-34.8l14.2,45c0,0-0.8-48.2-7.1-81.4c-6.3-33.2-19.8-66.4-19.8-66.4l10.3,68c0,0-19-63.2-66.4-120.9
					c-47.5-57.7-93.2-71.9-93.2-71.9s26.9,19.8,56.1,48.2c29.2,28.5,37.1,48.2,37.1,48.2l-24.4-21.3l37.5,79
					c0,0-14.6-24.5-44.7-57.7c-30-33.2-71.1-59.3-71.1-59.3l36.3,41.1l-36.3-25.3c0,0,29.2,22.9,57.9,56.1
					c28.7,33.2,24.3,54.5,24.3,54.5l-45.8-52.2l46.6,74.3l-31.6-33.2l18.2,79c0,0-4.7-21.3-41.9-79.8
					c-37.1-58.5-98.8-89.3-98.8-89.3s21.3,14.2,59.3,60.9c37.9,46.6,25.3,71.9,25.3,71.9l-37.1-52.2l38.7,81.4l-44.3-60.1l33.2,94.8
					c0,0-14.2-38.7-41.9-86.1c-27.7-47.4-67.2-80.6-67.2-80.6l40.3,63.2l-40.3-41.1l34.8,90.1l-79-83.8l41.1,62.4l-75.9-68.8
					l53,55.3l-55.3-35.6L821,1131l-58.5-33.2l37.1,53.7l-40.3-25.3l53,76.7c0,0-20.5-21.3-48.2-37.9c-27.7-16.6-42.7-14.2-42.7-14.2
					l41.9,46.6l-53.7-15l51.4,35.6l-61.6-6.3l47.4,20.5h-46.6l65.6,24.5l-71.1-4.7l41.1,20.5l-43.5-8.7c0,0,21.3,34.8,3.2,66.4
					c-18.2,31.6-66.4,68.8-66.4,68.8l54.7-28.1l-38.5,27.9l51-21.9l-23.7,26.7l36.2-19c0,0-19,12.4-49.8,44.5
					c-30.8,32-44.5,72.9-44.5,72.9s4.7-7.1,32.6-35c27.9-27.9,40.9-34.4,40.9-34.4l-30.8,46.2l34.4-29l-20.7,33.2
					c0,0,45-54.5,95.4-75.3c50.4-20.7,61.6-23.1,61.6-23.1l-26.7,18.4c0,0,14.8-3.6,39.7-14.2c24.9-10.7,52.2-39.7,96.6-75.1
					c44.5-35.4,76.7-42.8,76.7-42.8l-32.2,17.8c0,0,119.7-11.9,180.2,50.4c60.5,62.2,45.6,176.6,45.6,176.6
					c25.5-85.7,6.1-135.9,6.1-135.9s0.8,2,10.7,22.9c9.9,20.9,11.1,71.1,11.1,71.1l2.8-44.7l4.3,37.1c0,0,7.9-64.8-15.8-111
					C1203.1,1308.8,1160.8,1293,1160.8,1293z"/>
				<path fill="#41B6C6" d="M2185.6,1502.4c0,0-13.6-40.9-44.5-72.9c-30.8-32-49.8-44.5-49.8-44.5l36.2,19l-23.7-26.7l51,21.9
					l-38.5-27.9l54.7,28.1c0,0-48.2-37.1-66.4-68.8c-18.2-31.6,3.2-66.4,3.2-66.4l-43.5,8.7l41.1-20.5l-71.1,4.7l65.6-24.5h-46.6
					l47.4-20.5l-61.6,6.3l51.4-35.6l-53.7,15l41.9-46.6c0,0-15-2.4-42.7,14.2c-27.7,16.6-48.2,37.9-48.2,37.9l53-76.7l-40.3,25.3
					l37.1-53.7l-58.5,33.2l51.4-58.5l-55.3,35.6l53-55.3l-75.9,68.8l41.1-62.4l-79,83.8l34.8-90.1l-40.3,41.1l40.3-63.2
					c0,0-39.5,33.2-67.2,80.6c-27.7,47.4-41.9,86.1-41.9,86.1l33.2-94.8l-44.3,60.1l38.7-81.4l-37.1,52.2c0,0-12.6-25.3,25.3-71.9
					c37.9-46.6,59.3-60.9,59.3-60.9s-61.6,30.8-98.8,89.3c-37.1,58.5-41.9,79.8-41.9,79.8l18.2-79l-31.6,33.2l46.6-74.3l-45.8,52.2
					c0,0-4.4-21.3,24.3-54.5c28.7-33.2,57.9-56.1,57.9-56.1l-36.3,25.3l36.3-41.1c0,0-41,26.1-71.1,59.3
					c-30,33.2-44.7,57.7-44.7,57.7l37.5-79l-24.4,21.3c0,0,7.8-19.8,37.1-48.2c29.2-28.5,56.1-48.2,56.1-48.2s-45.7,14.2-93.2,71.9
					c-47.5,57.7-66.4,120.9-66.4,120.9l10.3-68c0,0-13.4,33.2-19.8,66.4s-7.1,81.4-7.1,81.4l14.2-45l-2.4,34.8l35.6-73.5l-5.5,94
					l13.3-45l-9.4,58.1l30.8-47.8l-18.2,46.2l33.6-27.3l-50.2,57.3l65.6-38.7l-27.2,25.3l50.6-22.3l-43.1,29.8l40.1-8.7
					c0,0-37.5,10.7-72.6,26.5c-35.1,15.8-49.3,25.2-49.3,25.2l19.8-23.6c0,0-42.7,27.3-63.2,58.9c-20.5,31.6-26.5,49.4-26.5,49.4
					l10.7-39.5l-17,21.7c0,0,3.6-20.9,19.4-41.1c15.8-20.2,32-32.4,32-32.4s-42.3,15.8-66,62c-23.7,46.2-15.8,111-15.8,111l4.3-37.1
					l2.8,44.7c0,0,1.2-50.2,11.1-71.1c9.9-20.9,10.7-22.9,10.7-22.9s-19.4,50.2,6.1,135.9c0,0-14.8-114.4,45.6-176.6
					c60.5-62.2,180.2-50.4,180.2-50.4l-32.2-17.8c0,0,32.2,7.4,76.7,42.8c44.5,35.4,71.7,64.4,96.6,75.1
					c24.9,10.7,39.7,14.2,39.7,14.2l-26.7-18.4c0,0,11.3,2.4,61.6,23.1c50.4,20.7,95.4,75.3,95.4,75.3l-20.7-33.2l34.4,29
					l-30.8-46.2c0,0,13,6.5,40.9,34.4C2180.9,1495.3,2185.6,1502.4,2185.6,1502.4z"/>
			</g>
			<g>
				<path fill="#2D318D" d="M1076.1,1610.3c-35-1.2-66.4-7.1-66.4-7.1l62.2-1.8l-30.8-4.7l38.5-6.5h-26.1c0,0,33.8-6.5,59.3-23.1
					c0,0-35.6,13.6-74.7,11.9c-39.1-1.8-103.7-45-103.7-45l16.6,22.6c0,0-8.3,2.9-39.7-38c-31.4-40.9-45.6-77.1-45.6-77.1v25.5
					l-16-29.6c0,0,18.4,56.9,51,93.7c28,31.5,48.8,46.9,54.2,50.6l-59.5-40.5l20.7,22.5c0,0-38.5-22.5-61.1-48
					c-22.5-25.5-36.7-43.9-36.7-43.9s36.7,68.2,83.6,104.9c46.8,36.7,103.7,53.9,103.7,53.9l-24.9-18.4c0,0,30.3,17.2,63.1,18.4
					c32.9,1.2,75.6-8.9,75.6-8.9l-19.4,0.6l24.1-14.2C1124.1,1607.9,1111.1,1611.5,1076.1,1610.3z"/>
				<path fill="#2D318D" d="M1945,1516.1c-22.5,25.5-61.1,48-61.1,48l20.7-22.5l-59.5,40.5c5.4-3.7,26.2-19.1,54.2-50.6
					c32.6-36.7,51-93.7,51-93.7l-16,29.6V1442c0,0-14.2,36.2-45.6,77.1c-31.4,40.9-39.7,38-39.7,38l16.6-22.6
					c0,0-64.6,43.3-103.7,45c-39.1,1.8-74.7-11.9-74.7-11.9c25.5,16.6,59.3,23.1,59.3,23.1h-26.1l38.5,6.5l-30.8,4.7l62.2,1.8
					c0,0-31.4,5.9-66.4,7.1c-35,1.2-48-2.4-48-2.4l24.1,14.2l-19.4-0.6c0,0,42.7,10.1,75.6,8.9c32.9-1.2,63.1-18.4,63.1-18.4
					l-24.9,18.4c0,0,56.9-17.2,103.7-53.9c46.8-36.7,83.6-104.9,83.6-104.9S1967.5,1490.6,1945,1516.1z"/>
			</g>
			<g>
				<path fill="#ED077E" d="M1159.1,1699.2c-52.2,32-115.3,37.9-115.3,37.9l50.1-16l-54.5,2.9l25.9-5.9l-80.4-5.3
					c0,0,48.5,0,98.7-19c50.1-19,99.3-60.5,99.3-60.5l-32,17.2l23.1-20.1c0,0-58.8,30.7-115,42c-56.3,11.3-93.6,5.3-93.6,5.3
					s124.7,3.3,207.5-78.2c0,0-49.8,37.9-100.8,50.6c-51,12.6-132.1,9.5-132.1,9.5l54.2-9.5c0,0-27.7,1.6-84.6-31.6
					c-56.9-33.2-123.3-109.9-123.3-109.9l32,42.7l-54.9-53l42.7,61.6l-61.6-52.2l51.4,64.8l-51.4-50.6c0,0,29.2,64.8,73.9,116.2
					c44.7,51.4,121.6,90.5,121.6,90.5s-88.8-39.1-129.9-72.3c-41.1-33.2-88.5-111.4-88.5-111.4l30,55.3l-74.3-73.5l41.1,71.9
					l-41.1-47.4c0,0,9.5,47.4,53,91.6c43.5,44.3,88.1,73.5,88.1,73.5l-70.7-43.5l19.2,19c0,0-26.3-1.6-64.2-45
					c-37.9-43.5-64-95.6-64-95.6s25.3,84.2,66.4,130.2c41.1,46,96.4,74.4,96.4,74.4l-75.9-39.5l20.5,23.7c0,0-34.8-2.4-75.1-55.3
					c-40.3-52.9-64-106.7-64-106.7s27.7,114.6,68.8,177.8c41.1,63.2,47.4,69.3,47.4,69.3l-24.5-55.9c0,0,22.9,43.5,108.3,79
					c85.4,35.6,184.9,19,184.9,19l-77.4-12.6l75.9-4.7l-82.2-9.5c0,0,59.3-2.4,98.8-11.9c39.5-9.5,65.2-19,65.2-19l-51,1.6l79-22.9
					l-94.8,6.3l83.1-19.8l29.9-7.1l-28.5,13.3l54.5-2.7l-76.5,27.6l45.6-2.7l-47.1,20.2c0,0,34.1,11.3,84.5,14.2
					c50.4,3,93.1-14.8,93.1-14.8l-38.6-5.3l26.7-16.8l-34.7,8.5l31.2-16c0,0-14.8-6.5-22.5-18.4c-7.7-11.9,26.1-62.8,26.1-62.8
					l-29,16.6l33.8-39.7l-39.5,39.7l40.7-66.4l-45.6,41.5l51.6-77.6C1243.9,1626.3,1211.2,1667.2,1159.1,1699.2z"/>
				<path fill="#ED077E" d="M2129.1,1685.6c-40.3,52.9-75.1,55.3-75.1,55.3l20.5-23.7l-75.9,39.5c0,0,55.3-28.5,96.4-74.4
					c41.1-46,66.4-130.2,66.4-130.2s-26.1,52.1-64,95.6c-37.9,43.5-64.2,45-64.2,45l19.2-19l-70.7,43.5c0,0,44.7-29.2,88.1-73.5
					c43.5-44.3,52.9-91.6,52.9-91.6l-41.1,47.4l41.1-71.9l-74.3,73.5l30-55.3c0,0-47.4,78.2-88.5,111.4
					c-41.1,33.2-129.9,72.3-129.9,72.3s77-39.1,121.6-90.5c44.7-51.4,73.9-116.2,73.9-116.2l-51.4,50.6l51.4-64.8l-61.6,52.2
					l42.7-61.6l-54.9,53l32-42.7c0,0-66.4,76.7-123.3,109.9c-56.9,33.2-84.6,31.6-84.6,31.6l54.2,9.5c0,0-81.1,3.2-132.1-9.5
					c-51-12.6-100.8-50.6-100.8-50.6c82.8,81.5,207.5,78.2,207.5,78.2s-37.3,5.9-93.6-5.3c-56.3-11.3-115-42-115-42l23.1,20.1
					l-32-17.2c0,0,49.2,41.5,99.3,60.5c50.1,19,98.6,19,98.6,19l-80.4,5.3l25.9,5.9l-54.5-2.9l50.1,16c0,0-63.1-5.9-115.3-37.9
					c-52.2-32-84.8-72.9-84.8-72.9l51.6,77.6l-45.6-41.5l40.7,66.4l-39.5-39.7l33.8,39.7l-29-16.6c0,0,33.8,51,26.1,62.8
					c-7.7,11.9-22.5,18.4-22.5,18.4l31.2,16l-34.7-8.5l26.7,16.8l-38.6,5.3c0,0,42.8,17.8,93.1,14.8c50.4-3,84.5-14.2,84.5-14.2
					l-47.1-20.2l45.6,2.7l-76.5-27.6l54.5,2.7l-28.5-13.3l29.9,7.1l83.1,19.8l-94.8-6.3l79,22.9l-51-1.6c0,0,25.7,9.5,65.2,19
					s98.8,11.9,98.8,11.9l-82.2,9.5l75.9,4.7l-77.4,12.6c0,0,99.6,16.6,184.9-19c85.4-35.6,108.3-79,108.3-79l-24.5,55.9
					c0,0,6.3-6.1,47.4-69.3c41.1-63.2,68.8-177.8,68.8-177.8S2169.4,1632.6,2129.1,1685.6z"/>
			</g>
			<g>
				<path fill="#EB1B24" d="M1300.8,1024.1c0.7,1.1,1.1,1.8,1.1,1.8L1300.8,1024.1z"/>
				<path fill="#EB1B24" d="M1328.1,938.8c-4,10-4.8,16-4.8,16L1328.1,938.8z"/>
				<path fill="#2F499F" d="M1400.2,851.6c0,0-20.1,1.2-68.7,0c-48.6-1.2-122.1-21.3-122.1-21.3l68.8,27.3c0,0-47.4-4.7-94.8-13.6
					c-47.4-8.9-67.6-13.6-67.6-13.6l62,35.6l-62-17.8l22.5,23.7c0,0-90.1-77.1-144.6-147C939.2,654.8,796.9,448.6,740,422.5
					c-56.9-26.1-91.3-13-104.3,0c-13,13-34.4,85.4-34.4,85.4s26.1-68.8,52.2-79.4s53.7-13.6,104.3,21.3
					c50.6,35,198.4,248.9,198.4,248.9l-49.1-41.5c0,0,66.4,85.4,101.9,125.7c35.6,40.3,49.7,54.5,49.7,54.5l-80.6-33.2l56.1,67.6
					l-100-42.7l74.7,53.3l-80-29.6l64.6,45L911.9,867c0,0,77.9,36.7,122.5,84.2c44.6,47.4,65.6,86.5,65.6,86.5l-19.8-69.9
					c0,0,34.4,41.5,59.3,94.8c24.9,53.3,32,141.1,32,141.1l-3.6-118.5l29.3,94.8l-7.9-91.3c0,0,22.5,78.2,42.7,115
					s37.9,55.7,37.9,55.7s-26.1-46.2-39.1-107.9s-19-124.5-19-124.5l32.1,54.5l-9.6-52.2l33.2,40.3l-17.4-71.1l35.5,65.2l-15.7-87.7
					l30.9,48c-3.4-5.8-12.5-26.2,2.3-59.9c17.8-40.3,35.6-60.5,35.6-60.5l-10.6,35C1335.6,919.9,1354.4,886.5,1400.2,851.6z"/>
				<path fill="#2F499F" d="M2164.3,423.1c-13-13-47.4-26.1-104.3,0c-56.9,26.1-199.2,232.3-253.7,302.3
					c-54.5,69.9-144.6,147-144.6,147l22.5-23.7l-62,17.8l62-35.6c0,0-20.2,4.7-67.6,13.6c-47.4,8.9-94.8,13.6-94.8,13.6l68.8-27.3
					c0,0-73.5,20.2-122.1,21.3c-48.6,1.2-68.7,0-68.7,0c45.8,34.9,64.6,68.2,72.1,87.2l-10.6-35c0,0,17.8,20.2,35.6,60.5
					c14.9,33.7,5.7,54.1,2.3,59.9l30.9-48l-15.7,87.7l35.5-65.2l-17.4,71.1l33.2-40.3l-9.6,52.2l32.1-54.5c0,0-5.9,62.8-19,124.5
					c-13,61.6-39.1,107.9-39.1,107.9s17.8-19,37.9-55.7s42.7-115,42.7-115l-7.9,91.3l29.3-94.8l-3.6,118.5c0,0,7.1-87.7,32-141.1
					c24.9-53.3,59.3-94.8,59.3-94.8l-19.8,69.9c0,0,20.9-39.1,65.6-86.5c44.6-47.4,122.5-84.2,122.5-84.2l-81.8,30.8l64.6-45
					l-80,29.6l74.7-53.3l-100,42.7l56.1-67.6l-80.6,33.2c0,0,14.2-14.2,49.7-54.5c35.6-40.3,101.9-125.7,101.9-125.7l-49.1,41.5
					c0,0,147.8-214,198.4-248.9c50.6-35,78.2-32,104.3-21.3c26.1,10.7,52.2,79.4,52.2,79.4S2177.4,436.1,2164.3,423.1z"/>
				<path fill="#EB1B24" d="M1499.2,1024.7l-1.1,1.8C1498.1,1026.5,1498.6,1025.9,1499.2,1024.7z"/>
				<path fill="#EB1B24" d="M1471.9,939.4l4.8,16C1476.8,955.4,1475.9,949.4,1471.9,939.4z"/>
			</g>
			<g>
				<path fill="#FFFFFF" d="M871.6,747.3l62.8,8.3c0,0-15.4-20.2-75.9-26.1c-60.5-5.9-138.7,22.5-138.7,22.5s33.2-28.5,62.8-41.5
					c29.6-13,98.4-14.2,98.4-14.2l-53.3-8.3c0,0,61.6-2.4,67.6-1.2c5.9,1.2-34.4-15.4-92.5-16.6c-58.1-1.2-117.4,30.8-117.4,30.8
					s11.9-40.3,36.7-58.1c24.9-17.8,103.1-11.9,103.1-11.9l-68.8-16.6l69.9-1.2l-91.3-20.2c0,0,55.7-8.3,88.9,0
					c33.2,8.3,33.2,8.3,33.2,8.3s9.5-20.2-61.6-36.7c-71.1-16.6-147,27.3-147,27.3s8.3-35.6,34.4-49.8
					c26.1-14.2,86.2-15.4,86.2-15.4l-49.4-7.1l54.5-7.1c0,0-26.1-20.2-78.2-10.7c-52.2,9.5-72.3,51-72.3,51S631,494,651.1,451
					c0,0-43.9,39.1-49.8,131.6c-5.9,92.5,0,184.9,0,184.9l10.3-35.7c-2,11.6-2.2,34.2,13.3,68.9c23.8,53.3,49.9,113.8,49.9,113.8
					l-46.2-59.3l37.9,83l-40.3-30.8c0,0,20.2,49.8,39.1,88.9c19,39.1,0,122.1,0,122.1l19-40.3v65.2c0,0,17.8-72.3,68.8-117.4
					c51-45,137.5-73.5,137.5-73.5l-81.8,10.7l62.8-24.9c0,0-22.5-17.8-62.8,0c-40.3,17.8-64.1,33.2-64.1,33.2s16.7-49,83.1-79
					s66.4-30,66.4-30l-56.9,9.5l56.9-30.8c0,0-47.4-2.4-94.8,16.6c-47.4,19-79.4,47.4-79.4,47.4s14.2-69.9,84.2-98.4
					c69.9-28.5,135.8-19,135.8-19L863.3,771l76.6,2.4L871.6,747.3z"/>
				<path fill="#FFFFFF" d="M2198.7,583.1c-5.9-92.5-49.8-131.6-49.8-131.6c20.1,43.1,27.3,101.9,27.3,101.9s-20.2-41.5-72.3-51
					s-78.2,10.7-78.2,10.7l54.5,7.1l-49.4,7.1c0,0,60.1,1.2,86.2,15.4c26.1,14.2,34.4,49.8,34.4,49.8s-75.9-43.9-147-27.3
					c-71.1,16.6-61.6,36.7-61.6,36.7s0,0,33.2-8.3c33.2-8.3,88.9,0,88.9,0l-91.3,20.2l69.9,1.2l-68.8,16.6c0,0,78.2-5.9,103.1,11.9
					c24.9,17.8,36.7,58.1,36.7,58.1s-59.3-32-117.4-30.8c-58.1,1.2-98.4,17.8-92.5,16.6c5.9-1.2,67.6,1.2,67.6,1.2l-53.3,8.3
					c0,0,68.8,1.2,98.4,14.2s62.8,41.5,62.8,41.5s-78.2-28.5-138.7-22.5c-60.5,5.9-75.9,26.1-75.9,26.1l62.8-8.3l-68.3,26.1
					l76.6-2.4l-76.6,16.6c0,0,65.9-9.5,135.8,19c69.9,28.5,84.2,98.4,84.2,98.4s-32-28.5-79.4-47.4c-47.4-19-94.8-16.6-94.8-16.6
					l56.9,30.8l-56.9-9.5c0,0,0,0,66.4,30s83.1,79,83.1,79s-23.8-15.4-64.1-33.2c-40.3-17.8-62.8,0-62.8,0l62.8,24.9l-81.8-10.7
					c0,0,86.5,28.5,137.5,73.5c51,45,68.8,117.4,68.8,117.4v-65.2l19,40.3c0,0-19-83,0-122.1c19-39.1,39.1-88.9,39.1-88.9
					l-40.3,30.8l37.9-83l-46.2,59.3c0,0,26.1-60.5,49.9-113.8c15.5-34.7,15.3-57.2,13.3-68.9l10.3,35.7
					C2198.7,768.1,2204.6,675.6,2198.7,583.1z"/>
			</g>
		</g>
		<path fill-rule="evenodd" clip-rule="evenodd" fill="#F9B040" d="M2343.9,1390.4c-16-3.9-49.8-22.5-103.1-67.6
			c-53.3-45-73.2-65.4-122.1-89.2c-48.9-23.8-170-38-316.2-35.1c-146.1,2.9-378.7,60.3-403.3,61.3c-29.6,0.1-255.4-58.3-401.6-61.3
			c-146.1-2.9-267.2,11.3-316.2,35.1c-48.9,23.8-68.9,44.2-122.1,89.2c-53.3,45-87.1,63.7-103.1,67.6c-16,3.9-19.1,0.4-19.1,10.4
			c0,10,2.6,115.6,2.6,115.6s23-0.4,40.7,22.1c17.8,22.5,61.1,159.4,83.2,194c22.1,34.7,50.8,83.1,139,112.2
			c262.3,86.3,463.5-19.1,599-264.2c29.5-53.3,54.1-116.5,67.1-136c17.9-26.9,44.5-26.9,62.5,0c13,19.5,37.7,82.7,67.1,136
			c132.2,239,319,348.4,599,264.2c88.9-26.7,116.9-77.5,139-112.2c22.1-34.7,65.4-171.5,83.2-194c17.8-22.5,40.7-22.1,40.7-22.1
			s2.6-105.7,2.6-115.6C2362.9,1390.8,2359.9,1394.3,2343.9,1390.4z M1254.3,1582.8c-45,81.4-120.4,171.5-239.1,220.9
			c-118.7,49.4-263.3,30.3-314.5,2.6c-51.1-27.7-103.1-78-126.5-168.1c-23.4-90.1-26.9-157.7-12.1-207.9
			c14.7-50.2,82.8-166.6,382-183.6c87.2-5.1,332.5,23.7,366.4,117.8C1321.9,1395.7,1299.3,1501.4,1254.3,1582.8z M1439,1357.9
			c-3.8,2.2-27.2,2.6-39,2.6c-11.8,0-35.2-0.4-39-2.6c-5.2-3-19.5-40.3-19.5-40.3l58.5,9l58.5-9
			C1458.5,1317.6,1444.2,1354.9,1439,1357.9z M2225.7,1638.3c-23.4,90.1-75.4,140.3-126.5,168.1c-51.1,27.7-195.8,46.8-314.5-2.6
			c-118.7-49.4-194-139.5-239.1-220.9c-45-81.4-67.6-187.1-56.3-218.3c34-94.1,279.2-122.9,366.4-117.8
			c299.2,17.1,367.3,133.4,382,183.6C2252.6,1480.6,2249.1,1548.2,2225.7,1638.3z"/>
		<path fill-rule="evenodd" clip-rule="evenodd" fill="#F6ED30" d="M1400,1267.3c7.1-0.9,66-8.7,200.5-37.8
			c143.8-31.2,341.3-26.9,456.5-6.1c115.2,20.8,202.7,134.3,236.5,155.9c33.8,21.7,53.7,17.3,56.3,24.3c2.6,6.9-0.9,102.2-0.9,102.2
			s-13.9-6.9-37.2,19.9c-23.4,26.9-39.8,167.2-124.7,252.9c-84.9,85.8-246,90.1-334.4,78.8c-88.4-11.3-214-82.3-293.7-204.4
			c-79.7-122.1-124.7-229.6-138.6-236.5c-16.1-8.1-24.5-8.1-40.6,0c-13.9,6.9-58.9,114.3-138.6,236.5
			c-79.7,122.1-205.3,193.2-293.7,204.4c-88.4,11.3-249.5,6.9-334.4-78.8c-84.9-85.8-101.4-226.1-124.7-252.9
			c-23.4-26.9-37.2-19.9-37.2-19.9s-3.5-95.3-0.9-102.2c2.6-6.9,22.5-2.6,56.3-24.3c33.8-21.7,121.3-135.1,236.5-155.9
			c115.2-20.8,312.7-25.1,456.5,6.1C1334,1258.6,1392.9,1266.4,1400,1267.3L1400,1267.3z M1443,1369.2c8.7,0,26-59.3,26-59.3
			l-69,7.7l-69-7.7c0,0,17.3,59.3,26,59.3C1385.7,1369.2,1414.3,1369.2,1443,1369.2L1443,1369.2z M944.4,1239.2
			c-306.9,17.5-376.7,136.8-391.9,188.4c-15.1,51.5-11.6,120.8,12.4,213.3c24,92.4,77.3,143.9,129.7,172.4
			c52.4,28.4,200.8,48,322.5-2.7c121.7-50.6,199-143.1,245.2-226.6c46.2-83.5,69.3-191.9,57.8-223.9
			C1285.5,1263.5,1033.9,1234,944.4,1239.2L944.4,1239.2z M1855.6,1239.2c-89.5-5.2-341,24.3-375.9,120.8
			c-11.6,32,11.6,140.4,57.8,223.9c46.2,83.5,123.5,175.9,245.2,226.6c121.7,50.6,270.1,31.1,322.5,2.7
			c52.4-28.4,105.7-80,129.7-172.4c24-92.4,27.5-161.7,12.4-213.3C2232.3,1376,2162.5,1256.7,1855.6,1239.2z"/>
		<g opacity="0.5">
			<path fill-rule="evenodd" clip-rule="evenodd" fill="#E6E6E6" d="M1855.8,1246.7c-87.2-5.1-332.5,23.7-366.4,117.8
				c-11.3,31.2,11.3,136.9,56.3,218.3c45,81.4,120.4,171.5,239.1,220.9c118.7,49.4,263.3,30.3,314.5,2.6
				c51.1-27.7,103.1-78,126.5-168.1c23.4-90.1,26.9-157.7,12.1-207.9C2223.1,1380.1,2155.1,1263.8,1855.8,1246.7L1855.8,1246.7z
				 M944.2,1246.7c87.2-5.1,332.5,23.7,366.4,117.8c11.3,31.2-11.3,136.9-56.3,218.3c-45,81.4-120.4,171.5-239.1,220.9
				c-118.7,49.4-263.3,30.3-314.5,2.6c-51.1-27.7-103.1-78-126.5-168.1c-23.4-90.1-26.9-157.7-12.1-207.9
				C576.9,1380.1,644.9,1263.8,944.2,1246.7z"/>
			<g>
				<path fill="#FFFFFF" d="M2184.3,1350l-378,461.9c27.9,9.5,56.8,15.6,85.2,19l340.6-416.2
					C2224.2,1396.1,2209.9,1373.1,2184.3,1350z"/>
				<path fill="#FFFFFF" d="M1875.1,1248l-305.8,373.7c14.1,21.3,30.4,42.7,49,63.3l348.6-426
					C1939.1,1254.2,1908.6,1250.5,1875.1,1248z"/>
				<path fill="#FFFFFF" d="M1740.7,1252.6l-222.3,271.6c7.8,20,16.9,39.9,27.3,58.6c3.4,6.1,6.9,12.2,10.6,18.3l290.3-354.8
					C1819.8,1245.6,1781.9,1247.4,1740.7,1252.6z"/>
				<path fill="#FFFFFF" d="M777.2,1271l-221.4,270.6c3.1,28.9,9.3,61.1,18.5,96.8c0.2,0.9,0.5,1.9,0.7,2.8l319.5-390.4
					C849.7,1255.3,810.9,1262.3,777.2,1271z"/>
				<path fill="#FFFFFF" d="M1099.8,1258.7l-431.2,526.9c10.6,8,21.4,14.9,32.2,20.7c9.9,5.4,23.4,10.4,39.6,14.7l444-542.6
					C1157.3,1270.2,1128.3,1263.6,1099.8,1258.7z"/>
				<path fill="#FFFFFF" d="M1241.7,1300.8l-435,531.6c31.4,2.8,66.3,2.8,102-1.5l394.2-481.7
					C1290.3,1330.1,1268.6,1314,1241.7,1300.8z"/>
			</g>
		</g>
	</g>
</g>
</svg>
